<?xml version="1.0" standalone="no"?>
<!DOCTYPE svg PUBLIC "-//W3C//DTD SVG 20010904//EN"
 "http://www.w3.org/TR/2001/REC-SVG-20010904/DTD/svg10.dtd">
<svg version="1.0" xmlns="http://www.w3.org/2000/svg"
 width="118.000000pt" height="118.000000pt" viewBox="0 0 118.000000 118.000000"
 preserveAspectRatio="xMidYMid meet">
<metadata>
Created by potrace 1.14, written by Peter Selinger 2001-2017
</metadata>
<g transform="translate(0.000000,118.000000) scale(0.100000,-0.100000)"
fill="#000000" stroke="none">
<path d="M0 590 l0 -590 590 0 590 0 0 590 0 590 -590 0 -590 0 0 -590z m474
434 c9 -8 16 -24 16 -35 0 -11 9 -106 20 -212 29 -288 78 -533 101 -510 21 21
92 395 120 628 6 55 18 110 26 123 19 31 62 26 82 -10 14 -24 13 -43 -7 -197
-37 -272 -104 -607 -133 -664 -46 -90 -126 -89 -173 1 -64 125 -136 535 -136
779 0 77 3 94 18 102 25 15 48 13 66 -5z"/>
</g>
</svg>
